<?xml version="1.0" encoding="utf-8"?>
<!-- Generator: Adobe Illustrator 17.1.0, SVG Export Plug-In . SVG Version: 6.00 Build 0)  -->
<!DOCTYPE svg PUBLIC "-//W3C//DTD SVG 1.1//EN" "http://www.w3.org/Graphics/SVG/1.1/DTD/svg11.dtd">
<svg version="1.1" id="Layer_1" xmlns:sketch="http://www.bohemiancoding.com/sketch/ns"
	 xmlns="http://www.w3.org/2000/svg" xmlns:xlink="http://www.w3.org/1999/xlink" x="0px" y="0px" viewBox="0 0 32 32"
	 enable-background="new 0 0 32 32" xml:space="preserve">
<title></title>
<g id="Icons_new_Arranged_Names">
	<g id="_x31_02_Tornado">
		<path id="Triangle_30_copy" d="M3.5,3.1C4.6,1.4,9.1,0,16,0s11.4,1.6,12.5,3.1c1.6,2-0.9,6.7-8.3,11.4c-6.4,3.9-11,7.8-7.3,9.3
			c8.9,3.6,4.2,8.3,4.2,8.3s0-3.1-3.1-4.1c-5.3-1.7-7.3-3.1-9.4-5.2C3,21.1,1.3,16.2,6.6,11.4C9.3,8.9,1.5,6.4,3.5,3.1z M27,4
			c0-1.7-4.9-3-11-3S5,2.4,5,4s4.9,3,11,3S27,5.7,27,4z"/>
	</g>
</g>
</svg>
